<?xml version="1.0" standalone="no"?>
<!DOCTYPE svg PUBLIC "-//W3C//DTD SVG 20010904//EN"
 "http://www.w3.org/TR/2001/REC-SVG-20010904/DTD/svg10.dtd">
<svg version="1.0" xmlns="http://www.w3.org/2000/svg"
 width="2000.000000pt" height="2000.000000pt" viewBox="0 0 2000.000000 2000.000000"
 preserveAspectRatio="xMidYMid meet">
<metadata>
Created by potrace 1.14, written by Peter Selinger 2001-2017
</metadata>
<g transform="translate(0.000000,2000.000000) scale(0.100000,-0.100000)"
fill="#000000" stroke="none">
<path d="M9695 19898 c-22 -5 -71 -7 -109 -4 -38 3 -144 -2 -235 -10 -91 -9
-178 -14 -193 -12 -15 3 -25 1 -23 -3 7 -10 -56 -17 -165 -19 -102 -2 -127 -4
-150 -13 -15 -5 -34 -8 -170 -27 -36 -4 -104 -15 -152 -24 -48 -9 -114 -17
-147 -18 -34 -2 -61 -6 -61 -9 0 -4 -15 -9 -32 -12 -18 -4 -44 -9 -57 -13 -19
-6 -23 -4 -17 7 4 8 2 7 -6 -2 -11 -14 -66 -24 -188 -35 -8 -1 -22 -4 -30 -7
-8 -4 -24 -8 -35 -10 -11 -2 -28 -7 -37 -12 -10 -4 -29 -8 -43 -9 -14 0 -25
-5 -25 -10 0 -5 -8 -2 -17 5 -9 8 -14 9 -10 3 4 -7 -8 -15 -33 -22 -30 -7 -38
-7 -33 2 4 6 -1 5 -10 -3 -9 -7 -24 -11 -32 -7 -9 3 -14 2 -11 -3 6 -9 -43
-24 -86 -25 -14 0 -24 -4 -22 -7 2 -3 -19 -9 -46 -12 -28 -3 -65 -13 -82 -21
-38 -17 -97 -33 -148 -40 -19 -3 -58 -14 -86 -25 -29 -11 -54 -17 -58 -14 -3
4 -6 2 -6 -4 0 -14 -75 -37 -90 -28 -9 6 -11 4 -5 -5 6 -10 4 -12 -8 -7 -10 3
-17 3 -17 -1 0 -8 -91 -36 -115 -37 -5 0 -16 -6 -23 -12 -18 -18 -29 -16 -42
5 -9 14 -10 14 -5 -6 6 -19 3 -23 -13 -20 -10 2 -25 -2 -33 -8 -28 -22 -76
-33 -89 -21 -9 8 -11 8 -7 1 7 -12 -81 -48 -141 -59 -19 -3 -63 -19 -99 -35
-36 -16 -70 -27 -76 -23 -5 3 -7 1 -4 -4 6 -9 -11 -23 -33 -27 -3 -1 -11 -5
-17 -9 -7 -5 -13 -5 -13 0 0 4 -4 2 -9 -5 -4 -7 -19 -14 -32 -16 -13 -1 -34
-8 -47 -15 -12 -6 -28 -9 -34 -5 -7 4 -8 3 -4 -4 4 -7 1 -12 -6 -13 -32 -2
-51 -9 -69 -25 -10 -9 -19 -14 -19 -9 0 4 -7 2 -15 -5 -8 -7 -15 -10 -15 -6 0
4 -11 -1 -25 -10 -14 -9 -25 -12 -25 -8 0 5 -4 4 -8 -3 -13 -20 -100 -53 -106
-40 -3 7 -5 6 -5 -3 -1 -9 -17 -23 -36 -32 -20 -9 -32 -11 -28 -4 3 6 -2 3
-12 -6 -17 -16 -19 -16 -32 0 -11 14 -12 14 -8 1 3 -9 -1 -22 -10 -29 -8 -7
-15 -9 -15 -6 0 4 -15 -3 -32 -15 -19 -13 -29 -17 -23 -8 6 8 1 5 -10 -8 -15
-16 -27 -21 -45 -17 -18 4 -21 3 -12 -4 11 -7 8 -11 -10 -15 -13 -4 -37 -18
-54 -32 -16 -14 -37 -24 -46 -21 -9 2 -19 -2 -22 -10 -3 -8 -15 -14 -26 -14
-11 0 -20 -4 -20 -9 0 -5 -13 -12 -30 -16 -16 -4 -30 -10 -30 -13 0 -4 -11
-12 -25 -19 -19 -8 -24 -8 -19 0 3 7 0 5 -8 -4 -11 -13 -32 -25 -58 -34 -31
-11 -58 -26 -69 -39 -7 -9 -17 -13 -22 -10 -5 3 -9 0 -9 -6 0 -6 -4 -8 -10 -5
-5 3 -10 2 -10 -3 0 -14 -57 -35 -71 -26 -7 4 -10 3 -5 -4 3 -6 2 -13 -4 -17
-5 -3 -10 0 -11 7 0 7 -4 3 -10 -10 -7 -18 -14 -22 -31 -17 -18 5 -19 4 -8 -4
23 -16 3 -25 -27 -12 -25 10 -26 10 -10 -3 12 -9 14 -16 8 -21 -6 -3 -11 -4
-11 -1 0 3 -11 -6 -25 -20 -14 -14 -30 -22 -35 -19 -6 3 -10 1 -10 -5 0 -6 -4
-8 -10 -5 -5 3 -10 -1 -10 -9 0 -9 -8 -16 -19 -16 -11 0 -23 -5 -26 -10 -4 -6
-11 -8 -16 -4 -5 3 -6 10 -3 16 4 7 2 8 -4 4 -6 -4 -9 -13 -5 -22 3 -8 1 -14
-4 -12 -6 2 -20 -8 -32 -22 -13 -14 -20 -18 -16 -10 4 10 2 9 -8 -2 -8 -10
-19 -18 -26 -18 -6 0 -11 -5 -11 -11 0 -5 -5 -7 -10 -4 -6 4 -7 11 -4 17 4 7
2 8 -4 4 -6 -4 -8 -14 -5 -23 5 -13 2 -15 -11 -10 -9 4 -15 3 -12 -1 3 -5 -9
-17 -26 -27 -27 -16 -31 -16 -25 -2 3 9 2 19 -4 22 -5 4 -9 3 -8 -2 5 -27 -7
-44 -57 -81 -31 -23 -60 -39 -65 -36 -5 3 -8 0 -7 -7 2 -6 -3 -14 -11 -17 -8
-2 -11 0 -7 6 3 6 2 14 -4 17 -6 4 -10 3 -9 -2 5 -30 -2 -45 -21 -40 -11 3
-18 0 -17 -6 1 -6 -8 -16 -20 -22 -13 -7 -20 -14 -17 -17 5 -6 -55 -32 -68
-29 -5 0 -7 -2 -5 -7 1 -4 0 -7 -3 -7 -3 0 -16 -10 -30 -23 -15 -14 -31 -20
-44 -16 -14 3 -17 2 -8 -3 9 -7 4 -15 -18 -31 -16 -12 -34 -22 -40 -22 -6 0
-9 -4 -6 -9 7 -11 -19 -33 -28 -23 -4 4 -7 3 -6 -3 5 -21 -1 -29 -10 -15 -8
13 -10 13 -10 -1 0 -9 -11 -22 -25 -29 -14 -7 -25 -17 -25 -22 0 -4 -9 -8 -20
-8 -11 0 -20 -4 -20 -10 0 -5 -6 -10 -14 -10 -8 0 -17 -7 -20 -16 -3 -8 -11
-12 -16 -9 -6 4 -9 2 -8 -5 2 -6 -10 -18 -26 -28 -17 -9 -40 -28 -53 -41 -13
-13 -23 -18 -23 -12 0 7 -5 9 -10 6 -6 -4 -8 -10 -5 -15 7 -11 -24 -22 -38
-13 -7 4 -6 -1 2 -10 7 -9 10 -17 5 -17 -5 0 -21 -10 -36 -23 -14 -12 -35 -29
-45 -37 -41 -34 -66 -48 -78 -44 -7 3 -16 1 -20 -5 -4 -7 0 -8 11 -4 11 4 15
2 13 -6 -3 -7 -8 -11 -12 -9 -3 2 -14 -7 -22 -19 -9 -13 -20 -23 -26 -23 -5 0
-18 -9 -29 -20 -11 -11 -27 -20 -36 -20 -9 0 -12 -5 -8 -12 5 -8 2 -9 -9 -5
-9 3 -19 1 -23 -5 -5 -7 -2 -8 7 -3 12 8 12 6 0 -8 -7 -9 -18 -14 -24 -10 -6
3 -7 1 -3 -5 3 -6 -3 -16 -15 -23 -12 -6 -32 -23 -45 -36 -13 -14 -27 -22 -32
-19 -6 3 -16 -2 -23 -12 -13 -16 -12 -16 6 -2 11 8 -20 -25 -68 -73 -54 -54
-92 -85 -100 -81 -7 4 -9 4 -5 0 9 -10 -32 -57 -44 -50 -5 3 -8 2 -7 -3 3 -20
-2 -34 -11 -28 -5 3 -10 -1 -10 -10 0 -9 -9 -19 -20 -22 -11 -3 -17 -9 -14
-14 3 -5 1 -9 -3 -9 -5 0 -30 -21 -56 -46 -26 -25 -51 -42 -57 -39 -6 3 -7 -1
-4 -10 8 -19 -23 -45 -46 -38 -13 4 -13 3 -1 -5 12 -8 6 -18 -29 -51 -27 -25
-47 -37 -51 -30 -4 7 -9 5 -12 -6 -4 -9 -3 -13 3 -10 6 3 10 3 10 -2 0 -11
-20 -40 -20 -29 0 5 -9 -2 -21 -15 -12 -13 -25 -23 -30 -21 -5 1 -9 -5 -9 -13
0 -16 -34 -38 -44 -27 -4 3 -4 -1 -1 -10 4 -10 -3 -23 -19 -36 -14 -11 -26
-24 -26 -28 0 -5 -20 -28 -44 -51 -24 -23 -41 -44 -38 -47 3 -3 0 -7 -6 -7
-27 -3 -31 -4 -39 -13 -5 -5 -3 -6 5 -2 21 12 13 -11 -14 -43 -27 -33 -56 -44
-33 -13 11 15 11 15 -1 4 -8 -7 -15 -17 -15 -22 0 -14 -76 -110 -87 -110 -5 0
-7 -4 -4 -9 8 -12 -31 -44 -43 -36 -7 4 -8 0 -4 -11 4 -12 3 -15 -5 -10 -8 5
-10 1 -5 -10 5 -13 3 -16 -10 -11 -9 3 -19 1 -23 -5 -4 -7 -3 -8 4 -4 7 4 12
2 12 -3 0 -6 -5 -11 -11 -11 -5 0 -7 -5 -4 -10 4 -7 -3 -9 -19 -6 -15 3 -24 1
-21 -5 4 -5 11 -7 16 -4 5 4 9 4 9 1 0 -8 -45 -73 -64 -91 -9 -9 -16 -21 -16
-27 0 -5 -7 -8 -15 -4 -13 4 -14 2 -5 -14 6 -11 7 -20 3 -20 -14 0 -73 -57
-66 -64 3 -3 1 -6 -6 -6 -7 0 -10 -4 -6 -9 3 -5 -4 -12 -15 -16 -11 -4 -17
-11 -14 -17 5 -7 2 -9 -7 -6 -10 4 -15 -1 -16 -12 -2 -25 -44 -72 -60 -66 -7
3 -15 0 -19 -6 -4 -7 -3 -8 4 -4 7 4 12 1 12 -8 0 -9 -5 -16 -11 -16 -5 0 -7
-4 -4 -10 3 -5 -2 -10 -12 -10 -12 0 -14 -3 -6 -8 8 -5 9 -13 3 -22 -7 -10
-10 -11 -10 -2 0 6 -4 12 -10 12 -5 0 -7 -6 -4 -14 3 -7 -6 -27 -20 -43 -14
-17 -22 -34 -18 -38 4 -5 0 -6 -8 -3 -11 4 -16 -1 -18 -15 0 -12 -6 -23 -12
-25 -5 -2 -10 -10 -10 -18 0 -8 -8 -14 -17 -15 -10 0 -13 -3 -6 -5 8 -4 6 -15
-9 -40 -11 -19 -23 -34 -28 -34 -4 0 -13 -13 -20 -30 -7 -16 -17 -27 -23 -23
-6 4 -8 0 -4 -9 3 -9 -2 -24 -11 -35 -9 -10 -23 -30 -31 -44 -7 -13 -30 -46
-50 -72 -27 -36 -41 -47 -56 -43 -17 4 -18 3 -4 -7 10 -7 12 -16 7 -22 -5 -6
-16 -19 -24 -30 -9 -11 -12 -13 -8 -5 4 8 3 12 -1 8 -5 -5 -10 -20 -11 -35 -2
-15 -8 -29 -14 -31 -5 -2 -8 -8 -4 -13 3 -5 0 -9 -6 -9 -6 0 -9 -4 -6 -9 6 -9
-28 -53 -39 -51 -4 1 -10 -1 -13 -5 -4 -4 -2 -6 3 -5 25 5 26 -2 1 -34 -14
-19 -26 -40 -26 -46 0 -7 -7 -9 -16 -6 -15 6 -15 4 -3 -11 12 -15 12 -16 -4
-10 -11 4 -16 3 -12 -3 8 -13 -37 -72 -51 -66 -8 3 -10 -3 -6 -16 4 -16 2 -19
-8 -13 -10 6 -12 4 -7 -9 5 -11 -2 -26 -21 -43 -15 -15 -21 -23 -15 -19 7 4
13 2 13 -3 0 -6 -4 -11 -9 -11 -5 0 -8 -6 -8 -12 1 -21 -24 -78 -35 -78 -5 0
-6 5 -2 12 4 6 3 8 -3 5 -6 -4 -8 -17 -6 -30 3 -14 -2 -31 -11 -40 -9 -8 -16
-19 -16 -24 0 -13 -56 -94 -62 -88 -2 3 -4 -5 -4 -18 1 -12 -4 -21 -11 -20 -8
2 -10 -4 -6 -14 5 -13 2 -15 -12 -10 -14 6 -16 5 -6 -7 9 -11 8 -17 -4 -30 -9
-9 -12 -16 -5 -16 6 0 4 -10 -6 -25 -14 -21 -19 -23 -33 -13 -14 11 -14 11 -3
-4 11 -13 11 -21 0 -40 -7 -13 -17 -26 -23 -30 -6 -5 -4 -8 5 -8 13 -1 13 -2
0 -13 -8 -7 -17 -21 -18 -32 -2 -11 -11 -29 -20 -39 -10 -11 -11 -16 -5 -12 9
5 11 2 7 -8 -3 -9 -10 -16 -15 -16 -5 0 -8 -5 -7 -12 2 -7 -2 -12 -9 -13 -6 0
-15 -4 -20 -9 -5 -5 -2 -6 6 -1 10 6 12 2 7 -14 -3 -11 -9 -30 -12 -42 -3 -12
-11 -18 -20 -15 -7 3 -16 1 -19 -5 -4 -5 -2 -8 3 -7 11 3 12 -3 5 -31 -3 -11
-5 -24 -6 -28 0 -4 -7 -14 -16 -21 -9 -8 -11 -11 -4 -8 7 4 9 -1 6 -14 -3 -11
-10 -20 -15 -20 -5 0 -6 6 -2 13 4 6 3 8 -1 4 -11 -10 -16 -39 -6 -32 4 2 -3
-17 -15 -43 -13 -26 -24 -53 -24 -59 0 -7 -5 -13 -11 -13 -5 0 -7 5 -3 12 4 7
3 8 -5 4 -8 -5 -9 -12 -2 -19 6 -8 5 -19 -5 -31 -8 -11 -14 -28 -14 -39 0 -11
-4 -15 -12 -11 -6 4 -8 3 -5 -3 6 -10 -4 -49 -26 -103 -6 -14 -12 -31 -13 -39
-1 -8 -9 -18 -16 -22 -7 -5 -9 -9 -5 -9 4 0 3 -9 -3 -20 -7 -12 -16 -18 -23
-13 -9 5 -8 2 1 -9 10 -12 8 -22 -13 -52 -14 -21 -21 -35 -15 -31 5 3 0 -16
-11 -42 -12 -26 -26 -59 -32 -73 -5 -14 -9 -31 -8 -37 1 -7 -3 -13 -8 -13 -5
0 -10 -8 -10 -17 1 -33 -13 -88 -23 -94 -5 -3 -9 -9 -9 -13 1 -6 0 -10 -4 -23
-1 -5 -6 -23 -10 -40 -4 -18 -11 -33 -16 -33 -4 0 -6 -9 -4 -20 2 -11 -2 -26
-9 -32 -7 -7 -11 -21 -8 -31 3 -10 -6 -33 -19 -50 -17 -24 -18 -28 -4 -17 17
14 18 13 12 -3 -4 -10 -7 -21 -7 -23 0 -2 -7 -4 -15 -4 -8 0 -15 -5 -15 -11 0
-5 5 -7 12 -3 7 5 8 3 2 -7 -4 -8 -10 -23 -11 -34 -2 -11 -6 -27 -10 -35 -3
-8 -7 -18 -8 -22 -2 -5 -3 -9 -4 -10 -3 -4 -11 -40 -14 -63 -1 -11 -8 -24 -14
-28 -7 -4 -13 -13 -13 -20 0 -7 4 -6 10 3 6 9 10 10 10 3 0 -6 -4 -14 -9 -18
-6 -3 -10 -13 -10 -23 -1 -40 -4 -58 -11 -67 -10 -14 -26 -71 -29 -103 0 -7
-5 -11 -9 -8 -5 3 -9 -1 -9 -9 0 -8 4 -12 9 -9 15 10 8 -9 -9 -23 -10 -8 -12
-11 -4 -7 11 5 13 3 8 -10 -4 -10 -10 -29 -13 -42 -4 -14 -11 -21 -18 -17 -8
4 -8 2 1 -7 9 -9 8 -22 -1 -54 -7 -23 -12 -50 -10 -60 1 -11 -2 -16 -10 -13
-7 3 -13 -1 -13 -9 0 -7 4 -11 9 -8 12 8 10 -3 -7 -35 -8 -16 -12 -31 -10 -33
3 -3 -1 -25 -9 -51 -7 -25 -11 -48 -8 -51 3 -4 -1 -6 -9 -6 -11 0 -11 -2 1
-10 8 -5 10 -10 4 -10 -7 0 -9 -11 -6 -25 2 -14 0 -25 -5 -25 -5 0 -10 -12
-11 -26 -1 -15 -8 -34 -15 -42 -10 -13 -9 -14 1 -8 14 8 12 -20 -3 -44 -13
-20 -15 -41 -5 -35 5 3 8 -4 7 -15 -1 -13 -6 -19 -16 -15 -10 4 -11 2 -3 -8
18 -21 8 -52 -17 -51 -12 1 -19 -1 -16 -5 4 -3 12 -6 18 -6 18 -1 9 -58 -10
-72 -10 -8 -12 -13 -5 -13 7 0 12 -5 12 -11 0 -5 -6 -7 -12 -3 -10 6 -10 5 -1
-7 9 -11 9 -19 2 -26 -6 -6 -11 -27 -11 -46 0 -30 -3 -35 -20 -32 -12 3 -17 1
-14 -3 4 -4 12 -8 17 -8 22 -3 23 -6 4 -14 -17 -7 -17 -9 -2 -9 9 -1 17 -6 17
-12 0 -5 -3 -8 -7 -6 -5 3 -8 -14 -8 -36 -1 -23 -5 -62 -9 -87 -5 -25 -8 -55
-8 -67 0 -13 -4 -21 -8 -18 -5 3 -12 1 -15 -5 -4 -6 -1 -9 7 -8 17 4 14 -92
-4 -104 -9 -5 -9 -8 -1 -8 6 0 9 -9 6 -20 -3 -11 -10 -17 -16 -13 -6 4 -7 1
-1 -8 4 -8 9 -24 10 -37 1 -17 -3 -21 -15 -17 -8 3 -12 3 -8 -1 4 -4 1 -14 -5
-23 -10 -13 -10 -14 2 -3 20 17 29 15 25 -5 -2 -10 -4 -22 -4 -26 -1 -5 -7 -5
-14 -1 -9 6 -9 5 0 -8 7 -8 10 -18 6 -22 -4 -4 -8 -23 -9 -42 0 -20 -7 -40
-15 -45 -10 -6 -10 -9 -1 -9 6 0 12 -8 12 -18 0 -10 -6 -24 -12 -31 -9 -9 -9
-12 -1 -7 8 4 11 -7 11 -38 0 -37 -3 -44 -17 -41 -10 2 -18 -3 -18 -11 0 -9 4
-11 12 -4 17 14 27 0 12 -18 -10 -13 -9 -14 3 -7 13 8 13 7 0 -10 -9 -11 -10
-16 -2 -11 7 4 12 1 12 -9 0 -9 -4 -14 -9 -11 -5 3 -14 -1 -20 -8 -9 -10 -9
-16 -1 -21 6 -4 9 -3 8 2 -2 4 2 9 7 11 6 1 9 -5 9 -13 -1 -8 -2 -40 -3 -71
-1 -41 -4 -53 -13 -48 -10 6 -10 4 -2 -7 5 -8 9 -25 7 -39 -1 -14 -3 -37 -4
-52 -1 -16 -6 -28 -11 -28 -4 0 -8 -5 -8 -11 0 -5 5 -7 10 -4 5 3 10 1 10 -4
0 -6 -6 -11 -12 -11 -9 0 -8 -4 2 -10 12 -8 13 -13 3 -30 -15 -23 -17 -42 -3
-20 7 11 10 0 8 -37 -1 -42 -4 -50 -17 -46 -12 3 -12 2 2 -7 11 -7 17 -24 17
-50 0 -33 -3 -38 -20 -35 -11 2 -22 0 -25 -5 -3 -5 3 -7 14 -5 11 2 25 -2 31
-10 15 -17 2 -87 -14 -78 -6 3 -6 0 1 -8 20 -21 15 -34 -5 -16 -16 15 -19 15
-19 2 0 -8 2 -13 5 -10 8 8 28 -20 29 -43 2 -20 -1 -21 -13 -11 -12 10 -13 9
-8 -5 3 -9 10 -16 15 -16 5 0 9 -5 9 -11 0 -6 -8 -8 -18 -5 -16 6 -16 5 1 -8
17 -13 25 -42 8 -32 -11 7 -7 -41 4 -52 4 -4 4 3 1 16 -5 13 -3 22 3 22 6 0
11 -11 11 -25 0 -14 -6 -25 -12 -25 -10 0 -10 -2 0 -9 14 -8 13 -46 -2 -70 -7
-10 -5 -12 3 -6 9 5 11 -1 8 -24 -3 -17 -1 -31 4 -31 5 0 9 -5 9 -11 0 -5 -4
-8 -8 -5 -5 3 -9 -1 -9 -9 0 -8 4 -12 9 -9 13 8 10 -10 -4 -25 -8 -8 -8 -11
-2 -8 16 9 24 -26 11 -48 -6 -12 -6 -16 0 -12 6 4 10 -13 10 -42 0 -44 -2 -49
-20 -45 -11 2 -16 0 -13 -4 4 -4 13 -7 19 -7 7 0 13 -8 15 -17 2 -10 -2 -18
-8 -18 -6 0 -8 5 -4 12 5 7 3 8 -6 3 -10 -6 -10 -11 3 -20 20 -14 22 -35 5
-35 -10 0 -10 -2 0 -9 7 -4 12 -23 12 -42 -1 -19 1 -51 4 -71 3 -25 0 -38 -7
-38 -9 0 -9 -2 0 -8 6 -4 14 -31 17 -59 2 -29 8 -57 11 -64 5 -8 0 -9 -16 -5
l-24 6 23 -11 c28 -15 29 -39 2 -34 -12 2 -18 0 -15 -6 4 -5 10 -7 15 -4 14 9
23 -15 26 -67 2 -31 -2 -48 -9 -48 -7 0 -6 -4 3 -10 13 -9 13 -11 0 -20 -10
-6 -11 -10 -3 -10 7 0 12 -3 12 -7 -1 -5 -1 -10 1 -13 7 -20 9 -50 2 -46 -5 3
-9 -1 -9 -9 0 -8 4 -12 9 -9 4 3 8 0 8 -5 0 -6 -6 -11 -12 -11 -10 0 -10 -2 0
-8 17 -11 24 -52 9 -52 -8 0 -7 -4 2 -9 15 -10 19 -23 23 -81 2 -19 8 -39 13
-43 6 -6 6 -10 -2 -14 -7 -2 -13 -9 -13 -14 0 -6 4 -7 10 -4 5 3 10 -3 10 -14
0 -30 -3 -36 -17 -35 -7 1 -10 -3 -7 -8 3 -5 13 -7 21 -4 11 4 13 2 9 -9 -3
-8 0 -15 5 -15 6 0 9 -9 6 -20 -3 -11 -2 -22 3 -25 4 -2 6 -20 4 -40 -1 -19 1
-33 5 -31 7 5 11 -16 14 -61 0 -13 4 -23 7 -23 5 0 11 -36 13 -82 1 -10 4 -18
8 -18 4 0 7 -15 7 -34 0 -19 3 -41 8 -48 4 -7 -3 -4 -17 7 -13 11 -18 13 -11
4 6 -9 8 -19 4 -23 -4 -4 -2 -7 3 -6 23 5 37 -1 32 -14 -3 -8 -3 -17 1 -21 4
-4 8 -16 9 -28 2 -28 7 -49 15 -62 3 -5 9 -30 13 -55 4 -25 12 -53 17 -64 7
-13 6 -21 -3 -27 -12 -7 -12 -9 0 -9 8 0 11 -6 7 -16 -4 -10 -2 -13 6 -8 8 5
9 2 5 -9 -3 -10 -2 -17 3 -17 6 0 10 -7 10 -15 0 -8 -4 -15 -10 -15 -5 0 -10
-5 -10 -11 0 -5 4 -8 9 -5 5 3 12 -1 15 -10 8 -21 8 -24 -5 -24 -5 0 -7 5 -3
12 5 7 3 8 -6 3 -10 -6 -7 -12 9 -25 13 -9 22 -23 20 -31 -1 -8 1 -21 4 -29 9
-21 37 -102 37 -107 0 -2 -4 -2 -9 2 -5 3 -13 1 -16 -5 -4 -6 -1 -9 6 -8 16 4
38 -39 41 -83 2 -19 7 -37 12 -40 12 -9 -3 -31 -16 -23 -7 4 -8 2 -4 -5 4 -6
11 -9 16 -6 5 3 11 1 15 -5 3 -5 -2 -10 -12 -11 -14 0 -14 -2 5 -9 22 -9 31
-30 12 -30 -5 0 -1 -9 10 -20 17 -17 22 -32 19 -56 0 -4 5 -11 13 -16 10 -7
10 -11 1 -15 -10 -3 -9 -8 2 -20 8 -8 13 -18 10 -23 -3 -5 -1 -12 5 -15 8 -5
7 -11 -1 -21 -6 -7 -16 -11 -22 -7 -6 3 -7 1 -3 -6 6 -8 12 -9 20 -2 18 15 24
5 20 -30 -2 -18 0 -28 6 -24 6 3 10 -1 10 -10 0 -9 -4 -14 -9 -11 -11 7 -8
-21 4 -31 4 -4 5 -2 1 5 -4 6 -2 12 3 12 6 0 11 -9 11 -19 0 -11 5 -23 11 -26
6 -4 8 -13 5 -21 -3 -8 -1 -14 5 -14 6 0 8 -4 5 -9 -4 -5 0 -12 6 -14 10 -4 9
-8 -2 -16 -13 -9 -12 -11 3 -11 10 0 17 -6 15 -12 -3 -7 2 -19 9 -27 8 -8 12
-22 10 -32 -3 -10 2 -20 10 -23 8 -3 11 -10 8 -16 -4 -6 -12 -7 -18 -3 -8 5
-8 2 0 -9 7 -8 11 -17 8 -20 -3 -3 2 -11 12 -19 15 -12 16 -12 8 1 -13 20 -15
40 -5 40 5 0 12 -15 15 -33 4 -17 12 -38 17 -44 6 -7 7 -13 3 -13 -4 0 -2 -6
4 -13 6 -8 8 -17 4 -20 -3 -4 0 -7 7 -7 7 0 11 -3 7 -6 -3 -4 0 -18 7 -33 17
-34 31 -81 18 -63 -7 11 -10 11 -15 -2 -4 -9 -3 -15 1 -15 22 4 31 -6 47 -48
10 -27 23 -51 29 -55 7 -5 6 -8 -3 -8 -12 0 -12 -2 1 -12 17 -14 34 -53 19
-43 -5 3 -13 0 -17 -6 -4 -8 -3 -9 4 -5 7 4 12 2 12 -4 0 -6 5 -8 11 -4 7 4
10 1 7 -7 -3 -8 2 -20 9 -28 12 -11 12 -15 1 -22 -10 -7 -10 -9 0 -9 7 0 20
-16 28 -35 15 -38 19 -58 5 -37 -7 11 -9 11 -14 -2 -4 -9 -3 -15 1 -15 19 3
30 -2 36 -17 4 -10 2 -13 -7 -9 -6 4 -3 -1 7 -9 12 -10 15 -16 7 -16 -7 0 -3
-9 10 -21 13 -11 19 -18 12 -15 -6 4 -15 2 -18 -4 -4 -6 -3 -10 2 -9 20 3 34
-2 28 -11 -3 -5 0 -10 7 -10 9 0 9 -3 -2 -10 -13 -8 -12 -10 3 -10 10 0 15 -4
12 -10 -3 -5 0 -10 7 -10 9 0 9 -3 -2 -10 -13 -8 -13 -10 2 -10 18 0 33 -33
23 -50 -4 -6 1 -7 12 -3 16 6 17 5 3 -12 -8 -10 -10 -16 -3 -12 6 4 14 3 17
-2 3 -5 -1 -11 -9 -15 -8 -3 -15 -11 -15 -18 0 -10 3 -9 9 1 8 12 12 12 25 2
8 -7 15 -16 14 -19 -1 -4 4 -20 10 -35 7 -16 10 -33 6 -38 -3 -5 0 -9 6 -9 7
0 9 -7 6 -16 -3 -8 -2 -12 4 -9 5 3 15 -5 22 -19 6 -14 15 -26 20 -26 5 0 6
-4 3 -10 -3 -5 -1 -10 5 -10 6 0 8 -4 5 -10 -3 -6 -1 -10 5 -10 7 0 10 -7 7
-15 -4 -8 -2 -17 4 -21 7 -4 6 -10 -1 -19 -8 -10 -8 -15 1 -21 8 -4 9 -3 5 4
-4 7 -2 12 5 12 6 0 9 -8 6 -20 -3 -11 0 -23 5 -27 7 -3 8 -1 4 5 -4 7 -5 12
-2 12 3 0 10 -10 17 -21 6 -12 7 -19 2 -16 -5 4 -10 -1 -10 -9 0 -9 10 -20 23
-24 12 -5 25 -14 30 -21 4 -8 3 -10 -4 -5 -7 4 -12 2 -12 -3 0 -6 7 -11 15
-11 14 0 19 -12 16 -32 0 -5 3 -8 9 -8 5 0 6 -7 3 -17 -4 -10 -2 -14 4 -10 12
8 52 -63 45 -82 -3 -8 0 -11 7 -7 14 9 15 -16 1 -32 -7 -9 -7 -9 2 -2 15 13
31 13 24 1 -4 -5 -1 -11 4 -13 6 -2 12 -13 13 -26 0 -12 5 -22 9 -22 4 0 12
-10 19 -21 9 -17 8 -20 -3 -14 -7 3 -1 -3 15 -15 15 -12 25 -26 22 -30 -3 -5
0 -12 6 -16 8 -4 7 -9 -2 -15 -11 -7 -10 -9 4 -9 11 0 25 -15 35 -37 10 -21
30 -57 45 -80 15 -24 27 -47 27 -53 0 -6 4 -9 9 -6 5 3 12 -1 15 -10 3 -8 2
-12 -3 -9 -5 3 -13 0 -17 -6 -4 -7 -3 -9 4 -5 12 7 37 -17 73 -74 9 -14 24
-37 34 -53 17 -26 17 -27 -1 -22 -11 4 -7 -1 7 -9 14 -8 34 -27 44 -42 11 -17
12 -24 4 -19 -8 4 3 -7 24 -26 20 -19 37 -39 37 -45 0 -6 9 -21 20 -34 12 -13
18 -30 16 -37 -3 -7 0 -15 6 -19 7 -5 8 -2 3 6 -5 9 -4 11 3 6 7 -4 12 -13 12
-21 0 -7 7 -21 16 -29 8 -9 16 -25 17 -35 1 -11 3 -18 5 -16 6 6 48 -48 45
-57 -2 -5 1 -8 7 -8 16 0 132 -159 124 -172 -4 -7 -3 -8 4 -4 7 4 12 1 12 -9
0 -9 5 -13 10 -10 6 3 10 -1 10 -10 0 -10 -5 -13 -12 -9 -7 4 -8 3 -4 -4 4 -6
13 -9 20 -6 16 6 50 -42 40 -58 -4 -7 -3 -8 5 -4 7 4 15 -2 20 -16 6 -13 10
-17 11 -8 0 12 3 11 11 -3 5 -9 7 -23 3 -30 -5 -7 0 -6 11 3 17 14 18 13 12
-2 -3 -10 -3 -17 1 -15 4 1 16 -7 27 -18 29 -29 71 -90 55 -80 -9 5 -11 4 -6
-3 4 -7 13 -12 21 -12 7 0 24 -15 36 -32 13 -18 27 -35 32 -37 4 -1 0 -9 -10
-17 -17 -12 -16 -13 4 -7 14 3 23 1 23 -7 0 -6 7 -18 16 -27 8 -9 13 -22 10
-29 -3 -7 -1 -16 4 -19 4 -3 7 7 5 22 -2 25 -1 26 9 10 6 -10 21 -31 33 -45
13 -15 23 -31 23 -36 0 -4 18 -24 40 -43 32 -28 38 -38 29 -50 -9 -11 -9 -12
4 -7 17 6 47 -16 47 -35 0 -6 5 -11 10 -11 6 0 10 -7 10 -15 0 -8 5 -15 11
-15 19 0 90 -74 84 -88 -3 -7 0 -10 6 -7 14 9 39 -14 39 -37 0 -10 4 -17 9
-14 5 4 20 -6 33 -22 12 -15 34 -35 48 -45 13 -9 22 -17 19 -17 -4 0 29 -35
72 -78 72 -70 92 -102 60 -94 -7 1 -10 -2 -6 -8 5 -8 11 -8 21 1 11 9 23 2 60
-35 25 -25 50 -46 55 -46 6 0 7 -5 4 -10 -4 -6 -11 -7 -17 -4 -7 4 -8 2 -4 -5
4 -6 11 -9 16 -6 12 7 72 -49 63 -58 -3 -4 0 -7 9 -7 21 0 52 -36 42 -51 -5
-8 -3 -10 5 -4 7 4 20 -1 30 -11 9 -11 32 -30 50 -44 18 -14 44 -35 57 -48 13
-13 24 -20 24 -17 0 4 27 -20 60 -52 34 -32 65 -57 70 -56 5 2 7 -4 4 -12 -4
-10 -2 -13 8 -10 9 4 25 -6 39 -24 13 -17 30 -31 38 -31 9 0 11 -7 8 -21 -4
-15 -2 -18 7 -10 9 7 16 5 26 -9 8 -11 19 -20 25 -20 6 0 21 -9 33 -20 12 -12
22 -18 22 -15 0 2 11 -5 25 -17 13 -11 22 -25 19 -30 -3 -5 -2 -8 3 -7 15 2
53 -13 53 -22 0 -5 6 -9 13 -9 6 0 21 -12 31 -27 11 -14 13 -23 6 -18 -9 5
-11 4 -6 -4 4 -6 12 -9 17 -6 14 9 58 -28 59 -50 1 -12 4 -15 7 -7 3 9 12 6
28 -12 13 -14 26 -22 29 -19 3 4 6 2 6 -4 0 -6 14 -16 31 -23 17 -7 37 -24 46
-36 8 -13 19 -21 24 -18 5 3 9 0 9 -5 0 -6 6 -11 13 -11 8 0 19 -10 26 -22 9
-19 11 -19 6 -3 -5 18 -3 18 14 -3 11 -13 22 -23 26 -22 6 0 50 -27 75 -47 86
-68 109 -84 137 -97 24 -11 31 -20 27 -33 -5 -15 -4 -16 6 -3 9 11 13 12 17 3
2 -7 11 -13 20 -13 8 0 24 -10 35 -22 11 -13 17 -17 13 -10 -11 21 5 13 32
-15 15 -16 23 -21 19 -13 -6 13 -5 12 6 0 7 -9 27 -22 44 -28 16 -7 42 -24 56
-37 14 -13 29 -21 32 -18 9 10 46 -28 39 -40 -3 -6 -1 -7 5 -3 15 9 62 -22 62
-40 0 -8 5 -14 11 -14 5 0 7 5 3 11 -4 8 0 7 15 -1 12 -6 24 -17 27 -25 3 -8
12 -11 19 -9 7 3 23 -4 35 -16 11 -11 24 -19 29 -16 4 3 19 -6 33 -19 14 -13
29 -21 32 -17 4 3 9 -4 13 -17 4 -16 8 -19 14 -10 6 10 11 10 23 0 9 -7 13
-18 9 -25 -4 -6 2 -4 12 4 17 14 18 13 12 -4 -7 -17 -6 -17 10 -5 15 12 16 12
10 -3 -4 -13 -2 -15 10 -11 12 5 14 3 8 -7 -6 -10 -4 -12 9 -7 20 8 59 -10 52
-22 -3 -4 6 -6 20 -3 20 4 26 0 31 -18 4 -16 8 -18 14 -8 7 10 9 10 9 1 0 -7
9 -13 21 -13 13 0 18 -4 13 -12 -5 -8 -2 -9 10 -5 14 6 17 3 12 -10 -6 -14 -5
-15 5 -6 10 10 15 9 26 -5 9 -11 12 -12 7 -2 -4 8 5 4 19 -9 15 -14 27 -21 27
-17 0 3 14 0 30 -9 17 -9 30 -20 30 -26 0 -6 4 -8 9 -5 14 9 71 -24 72 -42 0
-10 3 -12 5 -5 7 17 54 -5 54 -26 0 -14 2 -14 10 -1 9 14 11 13 14 -9 0 -5 5
-13 10 -18 5 -4 6 -3 2 4 -3 6 -2 14 4 18 5 3 10 1 10 -5 0 -6 4 -9 9 -6 13 8
42 -4 35 -15 -3 -5 1 -6 9 -3 8 3 22 -2 31 -11 9 -9 20 -13 26 -10 6 3 13 -1
16 -10 5 -12 9 -13 14 -5 5 9 10 5 15 -10 5 -15 10 -19 14 -11 6 9 20 5 52
-11 24 -13 46 -26 47 -31 2 -4 8 -5 13 -1 5 3 9 0 9 -7 0 -7 3 -10 6 -7 3 4
17 0 31 -7 15 -8 30 -12 35 -9 4 3 8 -2 8 -11 0 -10 -5 -13 -12 -9 -7 5 -8 3
-3 -6 6 -10 11 -9 22 5 13 18 13 18 14 -1 0 -11 3 -14 6 -6 4 10 9 9 20 -5 8
-10 12 -12 8 -5 -3 6 -2 12 3 12 17 0 22 -13 10 -29 -9 -13 -8 -12 7 1 17 16
21 16 59 -4 23 -12 41 -20 41 -18 0 2 10 -2 23 -9 12 -7 20 -16 18 -20 -3 -4
6 -6 19 -3 18 3 25 0 25 -12 0 -9 5 -16 11 -16 5 0 7 5 4 10 -9 14 9 12 23 -2
7 -7 20 -13 30 -13 9 0 16 -5 15 -11 -1 -6 9 -10 23 -8 15 1 34 -6 45 -17 12
-12 19 -14 19 -6 0 9 2 9 8 0 4 -6 24 -14 45 -18 21 -4 45 -14 52 -22 11 -11
15 -11 15 -2 0 7 7 5 16 -7 8 -10 13 -13 9 -7 -4 9 -1 11 9 7 9 -3 16 -14 17
-23 0 -10 2 -11 6 -4 3 9 10 10 22 3 10 -5 21 -6 25 -3 3 3 6 1 6 -6 0 -6 6
-11 13 -10 31 4 48 -2 41 -13 -6 -10 -4 -10 8 0 11 9 18 10 23 2 3 -6 10 -8
15 -5 14 8 40 -6 33 -19 -4 -6 0 -6 9 2 11 9 18 10 23 2 3 -5 15 -10 26 -10
10 0 19 -5 19 -11 0 -5 5 -7 10 -4 6 3 13 -1 16 -10 6 -13 8 -14 15 -3 7 11 9
11 9 0 0 -9 7 -11 19 -7 10 3 25 0 33 -7 7 -7 20 -14 28 -16 8 -2 18 -9 22
-15 6 -9 8 -9 8 0 0 12 17 12 38 0 6 -5 12 -5 12 -1 0 4 7 -1 16 -12 8 -10 13
-12 9 -4 -4 8 1 6 9 -4 9 -11 16 -15 16 -9 0 8 39 11 48 3 1 -1 10 -3 20 -5
31 -3 52 -17 45 -29 -3 -6 -3 -8 2 -4 4 4 15 2 24 -5 14 -11 14 -10 2 6 -16
20 -11 21 24 5 14 -6 25 -16 25 -22 0 -6 5 -4 10 4 6 9 10 10 10 3 0 -6 9 -10
20 -8 11 2 20 -2 20 -8 0 -7 4 -6 10 3 5 8 10 10 10 3 0 -6 9 -9 20 -6 11 3
20 1 20 -4 0 -5 8 -9 18 -9 9 -1 31 -4 47 -8 17 -4 36 -8 43 -8 6 -1 12 -7 12
-14 0 -7 4 -16 10 -19 6 -3 7 1 4 9 -7 19 -1 20 46 5 45 -13 69 -19 100 -23
49 -8 80 -18 80 -28 0 -5 -5 -6 -12 -2 -7 4 -8 3 -4 -5 6 -9 11 -9 22 0 11 9
14 8 14 -2 0 -11 2 -11 10 1 7 11 10 11 10 2 0 -7 4 -10 10 -7 5 3 10 -1 10
-9 0 -8 4 -17 9 -20 5 -4 7 4 3 16 l-5 23 24 -20 c18 -15 20 -16 10 -2 -17 22
-3 22 28 0 14 -9 21 -11 17 -5 -4 7 -2 12 3 12 6 0 11 -3 11 -7 0 -5 11 -9 25
-10 46 -4 55 -6 55 -14 0 -5 7 -5 17 -2 10 4 14 2 9 -5 -3 -6 -2 -14 4 -17 6
-4 9 -1 8 7 -3 15 35 12 40 -3 2 -5 8 -9 13 -9 6 0 7 4 4 10 -3 5 -1 10 4 10
6 0 11 -3 11 -7 0 -5 17 -8 39 -7 21 0 49 -4 62 -9 13 -6 31 -10 39 -11 8 -1
15 -6 15 -13 0 -6 3 -15 7 -19 4 -3 5 3 3 16 -3 16 0 20 11 16 9 -3 18 -6 20
-6 3 0 3 -4 0 -8 -3 -5 1 -9 9 -9 8 0 12 4 9 9 -3 4 0 8 5 8 6 0 11 -4 11 -8
0 -5 15 -9 33 -9 122 -1 159 -7 167 -27 7 -16 9 -17 9 -5 1 13 9 16 39 12 20
-3 45 -5 55 -4 9 0 17 -4 17 -8 0 -5 18 -7 40 -5 22 1 40 -2 40 -7 0 -6 5 -7
10 -4 6 3 10 1 10 -4 0 -6 5 -11 11 -11 5 0 7 5 4 10 -3 6 1 10 10 10 9 0 14
-4 11 -8 -2 -4 4 -8 14 -8 10 0 16 4 14 8 -3 4 2 8 10 8 8 0 17 -4 20 -9 4 -5
18 -8 33 -6 14 1 39 -1 55 -5 19 -6 28 -5 28 3 1 7 7 -1 15 -18 10 -19 13 -22
9 -7 -4 16 -1 22 10 22 9 0 16 -6 16 -12 0 -10 2 -10 8 -1 12 20 100 10 117
-13 10 -12 13 -14 10 -3 -4 11 1 15 20 15 14 0 25 -4 25 -9 0 -4 10 -5 21 -2
12 4 19 3 16 -2 -3 -5 3 -9 13 -9 10 0 16 4 13 9 -2 4 14 7 36 6 23 -2 41 -8
41 -13 0 -6 4 -5 9 3 9 15 55 17 92 6 16 -5 19 -4 14 5 -6 9 -4 11 4 6 19 -12
79 -16 311 -18 194 -3 215 -5 215 -20 0 -9 4 -20 9 -25 5 -4 6 -3 3 3 -10 17
18 25 34 11 12 -10 12 -9 2 3 -7 7 -13 16 -13 20 0 11 95 8 102 -3 5 -8 8 -7
8 3 0 17 40 22 40 5 0 -5 4 -4 9 4 6 9 23 12 55 10 26 -3 46 0 46 6 0 5 8 1
17 -10 13 -16 15 -17 10 -2 -8 22 2 22 19 0 10 -13 12 -13 9 -3 -4 12 4 15 35
16 21 1 37 -3 34 -7 -2 -4 0 -11 6 -14 6 -4 9 -1 8 7 -2 10 15 13 70 15 45 1
72 -2 72 -9 0 -7 4 -7 13 1 8 6 17 8 20 4 4 -3 7 -1 7 5 0 7 7 12 15 12 8 0
15 -6 15 -12 0 -10 3 -9 9 1 5 7 14 10 20 7 6 -4 9 -11 6 -16 -3 -5 -1 -12 5
-15 6 -4 9 -1 8 7 -2 8 6 13 19 12 12 -1 21 3 20 9 -3 15 61 27 67 13 3 -7 5
-7 5 2 1 6 13 12 29 12 21 0 24 -2 12 -10 -23 -15 -7 -12 26 4 38 19 106 27
122 14 8 -7 17 -7 27 2 8 6 20 8 26 4 7 -4 9 -3 6 3 -12 19 62 13 74 -5 9 -15
10 -15 5 1 -4 11 0 17 12 18 63 4 81 7 92 14 9 6 11 4 5 -6 -7 -11 -6 -12 6
-3 8 5 21 10 29 9 8 -1 23 2 32 7 10 5 18 3 21 -5 3 -7 6 -4 6 7 1 12 6 16 17
12 9 -4 23 -1 30 5 10 8 14 8 14 0 0 -6 5 -11 11 -11 5 0 7 5 4 10 -3 6 1 10
9 10 9 0 16 -6 16 -12 0 -9 3 -8 10 2 5 9 27 16 52 17 46 3 71 7 133 22 54 14
68 14 59 -1 -6 -10 -5 -10 7 -1 16 13 58 24 104 26 17 1 32 5 36 9 3 4 23 9
45 10 21 2 41 6 44 10 3 4 17 9 30 11 14 3 37 10 53 16 15 6 27 8 27 6 0 -2
10 -1 23 4 41 15 79 22 73 13 -3 -5 1 -9 9 -9 8 0 12 4 9 9 -3 4 3 9 13 10 26
2 36 4 56 13 9 4 24 5 32 1 8 -3 15 0 15 6 0 6 6 5 17 -3 11 -10 14 -10 9 -1
-4 7 -2 13 6 13 45 5 56 7 76 18 12 6 22 9 22 6 0 -3 8 -1 18 4 13 7 23 6 32
-2 10 -9 11 -9 5 2 -6 11 -3 13 13 9 12 -4 20 -2 17 2 -5 8 41 27 80 33 11 1
25 5 30 8 6 4 28 10 50 14 47 10 42 8 80 24 17 7 38 13 48 14 9 1 17 5 17 10
0 5 9 7 20 4 11 -3 20 -1 20 5 0 5 8 8 18 6 9 -1 23 1 29 5 9 5 11 3 7 -6 -3
-8 0 -18 7 -23 7 -4 10 -3 6 4 -4 5 -4 17 -1 25 7 18 44 30 44 14 0 -6 6 -3
13 6 6 9 23 18 37 19 14 2 31 7 38 11 6 5 12 5 12 1 0 -3 11 1 25 10 14 9 30
14 34 11 5 -3 11 -1 13 4 1 5 14 11 28 13 14 1 28 7 32 12 3 5 14 10 25 11 10
1 33 9 51 18 17 10 32 13 32 7 0 -5 5 -10 11 -10 5 0 7 5 4 10 -7 12 60 44 88
42 9 0 17 3 17 8 0 5 14 11 30 15 17 4 43 13 58 21 16 7 38 12 50 9 13 -2 20
0 17 5 -7 11 30 32 39 23 3 -3 6 -2 6 4 0 6 8 13 18 16 9 3 34 12 55 21 22 10
36 13 33 7 -4 -5 -1 -13 5 -17 7 -4 9 -3 5 4 -10 17 35 44 51 30 7 -6 16 -8
20 -4 3 3 1 6 -7 6 -10 0 -10 3 0 15 7 9 19 14 26 11 7 -3 15 3 19 12 5 14 7
14 15 2 8 -13 10 -12 10 3 0 16 9 21 27 15 5 -2 7 -7 5 -11 -1 -5 2 -6 7 -2 6
3 7 13 4 22 -4 10 -2 14 4 10 6 -4 13 -2 15 4 2 6 15 12 30 12 14 1 24 5 21
10 -2 4 4 10 14 13 10 3 30 12 44 20 14 7 29 11 33 7 3 -3 6 -2 6 4 0 10 64
29 83 25 4 -1 7 3 7 9 0 8 6 7 17 -2 10 -9 14 -9 10 -2 -5 8 4 18 24 28 19 10
28 12 24 4 -8 -12 47 24 73 49 8 7 18 10 23 7 5 -4 9 -2 9 3 0 6 10 8 23 5 16
-3 18 -2 9 5 -10 7 -2 13 32 23 25 7 43 15 41 18 -3 2 4 11 16 19 11 8 23 12
26 9 3 -3 16 6 30 21 13 15 21 20 17 12 -5 -10 1 -8 16 5 15 13 21 15 16 5 -4
-8 1 -5 10 7 9 13 24 23 33 23 9 0 22 5 28 11 15 15 47 18 56 5 6 -7 7 -5 4 6
-6 17 15 42 26 31 4 -3 7 0 7 7 0 7 3 10 7 7 3 -4 12 -2 20 4 10 9 13 8 13 -1
0 -16 15 -3 15 13 1 7 6 11 13 10 7 -2 12 2 12 8 0 6 9 9 19 6 15 -3 18 -1 14
11 -4 10 -2 13 5 8 7 -4 12 -2 12 6 0 9 3 9 10 -2 8 -13 10 -12 10 3 0 10 4
16 9 13 5 -3 11 1 15 9 3 8 12 15 20 15 7 0 17 7 20 16 3 9 13 14 20 11 8 -3
17 1 20 9 3 9 10 12 16 9 5 -3 10 -1 10 6 0 7 3 9 6 6 4 -4 15 3 25 15 15 16
22 18 33 9 11 -9 16 -9 22 0 5 8 3 9 -6 4 -8 -5 -11 -3 -9 4 3 7 8 12 13 11 5
-1 12 2 15 7 10 15 117 83 130 83 7 0 9 5 6 10 -3 6 -2 10 3 10 5 0 24 15 42
34 20 20 41 33 52 31 10 -2 17 2 15 8 -1 7 6 11 17 9 11 -2 15 1 11 7 -5 10 1
13 21 10 4 0 10 3 13 9 13 19 101 63 112 56 7 -4 9 -3 6 4 -9 13 90 85 105 76
7 -4 8 -3 4 4 -4 7 -2 12 5 12 7 0 10 3 6 6 -3 4 0 11 6 18 19 17 60 39 53 28
-3 -5 1 -9 8 -9 8 0 12 6 9 13 -5 14 30 37 41 27 3 -3 6 0 6 9 0 22 36 53 43
36 4 -10 6 -10 6 1 1 13 46 61 57 61 3 0 20 16 38 35 19 19 38 35 43 35 6 0
16 7 23 15 7 8 16 12 21 9 5 -3 9 2 9 12 0 11 6 15 20 11 11 -3 23 0 27 5 3 7
1 8 -5 4 -18 -11 -14 10 5 25 15 12 16 12 8 -1 -4 -8 11 6 35 33 24 26 48 47
54 47 6 0 17 9 24 20 7 11 19 20 26 20 8 0 28 14 45 31 18 17 36 27 42 23 7
-4 9 -3 6 4 -4 5 12 24 35 41 23 17 39 31 35 31 -4 0 -2 6 5 14 7 8 15 12 17
10 2 -2 10 4 16 13 11 15 15 16 31 3 17 -14 18 -13 6 1 -10 14 -8 19 12 33 14
9 30 16 36 16 6 0 8 5 5 10 -4 6 -2 9 3 8 6 -2 9 0 9 3 -1 3 14 19 33 35 19
16 37 32 38 37 2 4 10 7 17 7 8 0 17 9 20 20 3 11 11 20 16 20 6 0 7 -5 3 -12
-4 -7 -3 -8 5 -4 6 4 9 11 6 16 -8 12 17 50 32 50 7 0 13 7 13 15 0 13 19 20
43 16 5 -1 6 3 2 9 -3 6 -11 8 -16 5 -19 -12 -8 8 23 41 18 19 39 32 46 29 7
-2 10 -1 7 4 -6 11 35 42 46 35 4 -2 11 1 15 7 4 8 3 9 -4 5 -7 -4 -12 -4 -12
-1 0 11 27 34 33 29 3 -3 8 4 12 17 6 17 9 19 16 8 6 -10 9 -8 9 9 0 12 5 22
11 22 5 0 7 -5 3 -12 -4 -7 -3 -8 5 -4 6 4 9 11 7 15 -8 12 49 63 59 54 4 -5
5 -2 1 4 -7 13 38 63 56 63 5 0 6 5 3 10 -3 6 -1 11 4 11 6 1 15 2 20 3 5 0
13 5 18 10 5 5 3 6 -5 2 -16 -10 -15 2 2 19 7 8 17 11 21 7 4 -4 5 -2 4 3 -5
17 12 56 22 50 5 -4 9 -1 9 5 0 6 12 22 28 35 56 51 73 71 65 79 -4 3 -1 6 5
6 7 0 12 6 12 14 0 7 11 21 25 30 31 20 115 107 115 119 0 13 122 132 132 129
5 -1 7 2 3 8 -3 5 1 13 9 16 9 3 13 10 10 15 -3 5 0 9 5 9 6 0 11 6 11 14 0 8
9 21 20 29 11 8 17 17 14 20 -4 4 5 11 20 16 14 6 26 13 26 15 0 3 -8 2 -17
-1 -14 -5 -12 0 6 26 15 21 29 30 39 26 11 -4 12 -2 4 8 -9 10 -6 18 11 32 12
11 25 20 29 20 12 0 21 15 9 15 -13 0 -7 9 35 55 12 13 19 27 15 31 -3 4 2 4
12 1 11 -4 16 -3 12 3 -3 6 -1 10 6 10 7 0 9 3 6 6 -4 4 3 15 14 25 11 9 20
21 21 26 0 4 4 7 10 5 5 -1 7 5 4 15 -3 11 5 30 21 48 14 17 22 24 18 16 -5
-9 -4 -12 3 -7 6 3 10 14 9 24 -1 22 52 102 69 102 7 0 16 4 19 10 4 6 -1 7
-12 3 -16 -6 -16 -5 -4 10 7 9 18 14 25 10 6 -3 8 -3 4 2 -8 8 24 68 50 94 8
8 18 25 23 39 7 19 14 23 32 19 19 -5 20 -5 5 6 -15 12 -15 15 2 36 12 16 22
21 31 16 11 -7 10 -4 -1 10 -14 17 -13 18 10 12 24 -6 24 -5 6 8 -17 13 -18
15 -3 15 9 0 16 6 14 12 -1 8 6 12 18 10 15 -2 17 0 6 6 -10 7 -11 14 -2 31 7
12 17 18 23 15 8 -5 9 -1 5 10 -4 10 -1 19 8 22 8 4 13 10 10 14 -3 5 2 15 10
23 8 9 15 20 15 26 0 6 5 11 10 11 6 0 10 5 10 12 0 19 61 108 71 102 5 -3 6
3 2 12 -4 11 -3 15 4 11 7 -5 9 0 6 11 -3 11 7 31 25 50 17 18 28 32 25 32 -2
0 4 12 15 28 10 15 22 35 25 45 4 11 12 15 18 11 8 -5 9 -3 5 5 -5 7 0 19 10
27 11 9 13 13 6 9 -10 -5 -10 -1 -1 19 7 14 15 24 18 21 4 -2 8 6 8 17 1 11
10 29 19 40 10 10 19 25 20 33 3 22 40 65 49 57 5 -4 5 -2 1 5 -3 6 3 33 15
60 51 113 72 153 80 153 5 0 8 3 7 8 -4 15 31 82 43 82 7 0 9 3 6 7 -4 3 -3
11 2 17 5 6 16 35 25 65 18 61 33 84 50 74 8 -4 7 -2 -1 7 -13 14 -6 43 8 34
5 -3 6 3 2 12 -4 11 -2 15 4 11 6 -4 10 -1 10 6 -1 18 24 77 33 77 4 0 11 16
14 36 6 27 11 34 23 30 12 -5 13 -3 6 6 -8 9 -3 29 17 70 15 31 31 69 34 84 4
16 19 53 32 84 14 30 36 80 50 110 14 30 27 65 29 78 6 32 15 43 28 35 7 -4 6
1 -2 10 -12 15 -12 19 5 32 15 11 16 14 4 15 -9 0 -11 3 -5 8 6 4 11 14 13 22
1 8 6 24 11 35 25 59 60 154 65 178 4 18 11 25 19 20 8 -4 7 -1 -2 10 -8 11
-9 17 -3 17 7 0 9 7 5 17 -4 11 -3 14 5 9 8 -5 10 -2 6 8 -3 9 -1 16 5 16 6 0
8 7 4 17 -4 10 -2 14 4 10 6 -4 10 -1 10 6 -2 23 56 196 65 191 4 -3 5 2 2 10
-3 9 -3 24 1 33 4 10 9 27 10 38 9 67 39 164 48 158 6 -3 7 -1 4 4 -9 14 13
123 24 123 5 0 8 3 8 8 -4 23 2 52 10 48 5 -4 7 3 4 14 -3 11 0 20 6 20 5 0 8
7 5 15 -4 8 -1 21 5 29 6 7 8 16 5 19 -3 3 -2 12 2 19 8 13 9 18 12 71 1 16 5
26 10 24 4 -3 8 7 9 21 2 39 26 132 33 132 4 0 4 14 2 31 -3 18 -1 29 4 26 5
-3 9 9 10 26 0 31 4 51 24 147 5 25 12 71 15 102 4 32 10 60 14 62 4 3 6 19 3
36 -2 16 0 30 6 30 5 0 10 6 9 12 -2 50 4 78 15 72 6 -4 9 -3 6 2 -3 5 -2 34
3 64 5 30 12 80 15 110 7 65 8 79 28 235 8 66 16 138 16 161 0 22 3 44 6 47 4
4 8 46 10 94 2 48 7 131 11 183 4 52 6 119 5 148 -1 39 2 51 11 45 9 -5 9 -3
1 8 -8 10 -9 29 -3 64 5 28 10 55 11 60 0 6 -2 65 -6 133 -5 74 -4 122 2 122
5 0 5 17 -2 42 -8 31 -8 42 1 45 7 3 10 10 7 17 -9 23 -10 196 -1 196 4 0 6 3
4 8 -3 4 -8 57 -12 117 -4 61 -10 155 -14 210 -4 55 -7 121 -6 148 0 26 -3 47
-6 47 -4 0 -6 19 -5 43 1 23 -1 61 -5 84 -5 23 -11 82 -14 130 -7 116 -23 280
-31 318 -3 17 -14 71 -24 120 -21 104 -21 109 -23 192 -1 33 -5 59 -9 56 -5
-2 -8 12 -8 32 0 20 -11 76 -25 124 -13 48 -27 103 -30 122 -22 145 -104 505
-142 622 -14 43 -23 87 -20 98 3 10 2 17 -3 14 -7 -4 -57 153 -52 168 1 4 -2
7 -8 7 -5 0 -10 7 -10 17 0 28 -59 213 -190 588 -54 156 -57 163 -138 336 -28
58 -57 125 -66 150 -40 115 -59 159 -106 240 -27 47 -50 90 -50 93 0 4 -25 58
-55 121 -30 64 -55 118 -55 121 0 11 -230 421 -344 612 -67 113 -88 146 -158
251 -27 39 -69 104 -95 144 -26 39 -72 105 -103 146 -30 41 -54 78 -52 82 1 5
-2 9 -8 9 -5 0 -23 20 -40 45 -17 24 -49 65 -70 90 -22 26 -37 51 -34 57 4 6
3 8 -2 5 -6 -3 -33 29 -61 71 -59 88 -66 97 -187 241 -105 124 -140 164 -262
297 -50 54 -112 124 -139 154 -26 30 -95 102 -153 160 -58 58 -105 108 -104
113 1 4 -2 6 -6 5 -12 -4 -127 113 -124 126 2 6 0 8 -4 4 -9 -10 -35 12 -28
23 3 5 1 8 -4 7 -5 -2 -65 49 -133 112 -68 64 -145 133 -171 154 -26 21 -45
43 -41 49 3 6 1 7 -5 3 -6 -4 -28 9 -49 27 -21 19 -81 69 -133 111 -148 118
-196 158 -241 199 -24 21 -69 54 -101 74 -32 20 -58 40 -58 44 0 5 -7 9 -17 9
-9 0 -23 7 -32 15 -59 55 -532 385 -552 385 -6 0 -7 5 -3 12 5 7 3 8 -5 4 -7
-5 -20 -1 -29 7 -9 8 -36 24 -60 36 -23 12 -82 48 -131 80 -49 32 -138 82
-197 111 -60 29 -115 58 -123 64 -44 35 -369 201 -561 287 -52 23 -97 45 -100
48 -3 3 -12 7 -20 9 -8 2 -33 11 -55 21 -95 43 -113 51 -120 51 -4 0 -39 14
-78 31 -89 37 -109 46 -122 49 -5 2 -41 16 -78 32 -82 35 -120 51 -127 53 -3
1 -24 7 -48 14 -23 6 -40 16 -37 21 3 6 -1 7 -9 4 -18 -7 -108 25 -101 36 3 5
-4 6 -15 3 -11 -3 -20 0 -20 6 0 5 -6 8 -14 5 -7 -3 -31 2 -52 11 -22 9 -46
18 -55 20 -47 10 -99 29 -99 37 0 5 -4 7 -10 3 -5 -3 -26 2 -47 10 -41 18
-198 62 -353 101 -52 13 -143 36 -202 53 -58 16 -152 37 -207 47 -56 10 -101
21 -101 25 0 4 -9 5 -20 2 -11 -3 -20 -1 -20 3 0 5 -10 9 -22 10 -13 1 -52 8
-88 17 -77 18 -262 52 -375 67 -44 6 -98 15 -120 20 -22 5 -62 12 -90 15 -65
7 -116 15 -134 21 -8 3 -53 7 -100 9 -47 2 -108 8 -136 13 -46 9 -196 21 -350
27 -33 1 -98 5 -145 8 -150 12 -773 15 -815 5z m660 -1703 c66 -3 133 -10 149
-15 16 -6 56 -10 90 -10 68 0 266 -15 396 -31 47 -6 137 -17 201 -24 63 -7
153 -22 200 -33 46 -11 104 -24 129 -27 25 -4 57 -14 72 -21 15 -8 49 -14 75
-14 26 -1 66 -5 88 -9 82 -18 262 -63 325 -81 36 -11 92 -26 125 -34 33 -8
114 -33 180 -55 66 -22 132 -42 146 -45 14 -3 41 -16 61 -30 19 -13 53 -26 74
-29 57 -7 144 -33 205 -61 30 -14 95 -41 144 -62 50 -20 137 -55 195 -79 158
-64 221 -95 269 -132 24 -18 54 -33 66 -33 42 0 425 -201 620 -325 28 -18 60
-35 73 -39 12 -4 46 -26 74 -49 29 -23 85 -57 123 -77 66 -33 143 -83 260
-172 28 -21 54 -38 58 -38 10 0 297 -222 380 -293 33 -28 63 -61 68 -74 5 -13
19 -27 31 -32 43 -17 171 -114 237 -179 36 -36 89 -83 116 -105 28 -22 82 -74
120 -115 39 -42 91 -96 117 -120 26 -25 57 -64 69 -88 11 -25 31 -50 44 -57
18 -10 85 -65 138 -115 4 -4 31 -35 60 -69 97 -116 159 -188 201 -233 66 -72
112 -131 142 -187 16 -28 56 -82 89 -120 33 -39 66 -78 73 -89 7 -10 29 -45
50 -76 80 -122 198 -295 233 -343 33 -45 69 -127 69 -157 0 -6 13 -23 28 -37
41 -39 132 -183 187 -296 26 -55 61 -118 76 -140 32 -44 131 -272 154 -355 4
-14 17 -34 28 -44 26 -25 79 -142 124 -275 20 -58 49 -132 64 -163 16 -32 40
-90 53 -130 14 -40 38 -111 55 -158 16 -47 33 -110 37 -140 4 -30 17 -75 29
-100 29 -59 62 -156 81 -239 9 -36 24 -91 34 -122 10 -31 28 -108 41 -170 12
-63 34 -163 50 -222 16 -64 27 -134 27 -170 0 -34 4 -74 10 -89 26 -63 42
-139 47 -223 3 -49 8 -103 10 -120 3 -16 13 -86 24 -155 17 -111 37 -475 31
-555 -5 -54 -3 -79 10 -145 21 -111 -3 -809 -35 -1000 -27 -164 -35 -229 -35
-280 0 -28 -4 -59 -9 -68 -5 -10 -17 -78 -25 -152 -20 -167 -44 -297 -86 -465
-65 -261 -79 -321 -96 -390 -32 -140 -183 -574 -226 -652 -16 -29 -39 -92 -52
-140 -13 -49 -31 -106 -41 -128 -9 -22 -30 -76 -45 -120 -16 -44 -48 -119 -72
-165 -24 -47 -49 -101 -57 -120 -36 -89 -77 -178 -98 -213 -39 -62 -93 -165
-93 -176 0 -6 -20 -42 -45 -81 -25 -39 -45 -73 -45 -76 0 -10 -101 -172 -114
-183 -7 -6 -39 -12 -72 -13 -52 -2 -64 1 -100 27 -22 17 -73 67 -113 113 -40
45 -77 82 -81 82 -5 0 -25 27 -46 60 -20 33 -43 60 -50 60 -8 0 -82 69 -166
153 -84 83 -187 184 -228 222 -103 96 -191 193 -226 248 -18 29 -44 53 -72 66
-26 13 -96 77 -185 168 -78 82 -187 193 -242 248 -55 55 -112 117 -125 137
-14 21 -38 43 -55 50 -25 9 -275 254 -405 395 -19 21 -64 65 -100 97 -36 32
-70 71 -77 86 -6 16 -22 34 -35 41 -43 23 -117 93 -250 237 -73 78 -150 154
-171 169 -38 26 -111 113 -152 180 -11 18 -35 43 -53 57 -57 41 -154 128 -238
211 -44 44 -100 98 -125 121 -89 82 -249 251 -249 262 0 7 -4 12 -9 12 -5 0
-11 9 -14 20 -3 11 -16 24 -29 29 -29 11 -111 84 -202 181 -77 80 -264 268
-339 339 -26 24 -47 49 -47 55 0 7 -32 36 -71 66 -39 30 -90 79 -114 109 -24
31 -93 101 -154 156 -175 156 -235 216 -269 267 -18 26 -32 51 -32 56 0 6 -11
12 -24 16 -12 3 -50 33 -82 67 -32 34 -113 114 -178 178 -65 64 -142 141 -170
170 -136 145 -156 169 -156 179 0 7 -19 24 -42 38 -24 14 -152 135 -284 268
-133 132 -260 255 -282 271 -23 17 -41 35 -42 42 0 13 -135 149 -233 236 -32
28 -69 63 -80 76 -12 13 -38 38 -57 55 -19 17 -55 53 -80 79 -54 59 -214 219
-264 265 -20 19 -39 43 -42 55 -5 21 -99 87 -124 87 -11 0 -350 -336 -495
-491 -34 -35 -79 -79 -102 -96 -23 -18 -77 -75 -120 -125 -43 -51 -96 -109
-117 -128 -53 -47 -142 -135 -310 -307 -77 -79 -140 -143 -141 -143 -3 0 -294
-291 -400 -401 -66 -68 -130 -133 -143 -144 -13 -11 -69 -67 -126 -125 -56
-58 -117 -119 -136 -136 -19 -17 -67 -64 -106 -105 -38 -41 -110 -112 -160
-159 -49 -47 -122 -124 -162 -171 -40 -47 -110 -118 -155 -159 -91 -81 -323
-308 -464 -454 -51 -53 -95 -96 -98 -96 -7 0 -125 -111 -164 -154 -14 -16 -39
-41 -55 -55 -16 -14 -39 -37 -50 -51 -11 -14 -56 -59 -99 -100 -43 -41 -142
-140 -220 -219 -78 -80 -180 -183 -227 -230 -47 -47 -103 -107 -124 -134 -21
-26 -55 -57 -75 -69 -43 -25 -148 -128 -181 -178 -32 -46 -35 -49 -122 -118
-40 -33 -129 -119 -198 -193 -69 -73 -139 -147 -155 -164 -17 -16 -43 -47 -59
-67 -16 -21 -35 -38 -42 -38 -8 0 -62 -50 -121 -111 -152 -156 -483 -485 -716
-711 -109 -106 -210 -206 -225 -222 -15 -16 -83 -84 -152 -150 -69 -67 -150
-147 -180 -180 -30 -32 -91 -96 -134 -142 -44 -46 -93 -93 -110 -105 -17 -12
-47 -42 -66 -68 -62 -82 -157 -169 -182 -166 -13 1 -38 3 -56 4 -27 1 -39 10
-78 63 -25 35 -56 83 -69 108 -12 25 -33 65 -45 89 -12 24 -26 49 -31 55 -50
60 -89 136 -120 232 -12 38 -32 80 -44 94 -67 79 -345 727 -345 805 0 12 -20
62 -43 111 -40 82 -55 123 -117 334 -96 329 -123 434 -136 520 -3 25 -14 72
-25 104 -10 33 -28 111 -39 175 -11 64 -29 166 -40 226 -11 61 -25 135 -30
165 -11 60 -27 218 -40 405 -5 66 -14 170 -19 230 -20 217 -26 343 -26 535 0
322 12 493 46 646 6 27 5 52 -2 73 -12 33 12 273 52 523 10 68 26 170 34 228
9 58 29 152 45 210 16 58 38 155 49 216 12 61 37 156 56 210 19 54 35 109 35
122 0 26 23 100 114 377 97 290 203 565 302 780 12 28 35 81 50 118 15 38 45
99 67 135 21 37 54 101 73 142 20 41 40 84 46 95 7 11 38 72 71 135 33 63 70
126 82 140 13 14 37 53 53 87 17 35 44 80 61 102 17 21 31 42 31 46 0 4 14 24
30 45 17 21 30 41 30 44 0 4 5 12 10 19 6 7 29 44 52 82 23 39 47 74 55 78 7
4 13 13 13 18 0 13 25 39 38 39 12 0 64 81 82 128 7 17 16 32 21 32 4 0 10 8
13 18 4 10 14 27 24 38 10 10 27 35 39 54 12 20 33 46 47 59 14 14 26 29 26
34 0 15 78 116 130 167 24 25 77 83 117 130 86 101 177 200 333 364 63 67 137
145 163 174 26 28 51 52 54 52 9 0 241 197 288 244 47 47 179 156 189 156 4 0
18 12 31 28 13 15 66 59 119 97 53 39 135 100 182 138 48 37 92 67 99 67 8 0
26 11 42 24 15 13 44 31 63 41 19 10 51 32 71 49 67 58 375 249 512 318 21 10
59 35 83 54 25 18 50 34 56 34 6 0 25 11 42 24 17 13 42 26 56 31 14 4 52 22
85 40 33 18 95 47 139 64 43 17 90 40 105 50 34 24 316 151 335 151 8 0 17 4
21 9 3 5 31 17 63 26 31 9 71 22 87 29 109 49 179 76 245 96 41 12 121 40 176
61 56 21 133 43 170 50 38 6 86 19 106 29 20 10 94 34 165 54 123 35 190 50
423 95 58 12 186 37 285 57 224 44 422 71 543 73 52 1 104 6 117 11 13 5 45
12 72 15 26 3 66 8 88 11 140 18 696 23 970 9z m-255 -8197 c19 -23 45 -53 58
-67 13 -14 32 -42 44 -62 11 -21 31 -40 43 -43 12 -3 58 -41 102 -83 44 -43
144 -141 224 -219 172 -168 224 -225 250 -275 10 -21 27 -40 36 -43 10 -4 41
-27 68 -52 28 -25 61 -53 75 -62 26 -18 105 -100 130 -136 8 -12 23 -28 35
-38 53 -43 255 -245 255 -256 0 -12 36 -49 96 -97 59 -48 463 -455 529 -533
35 -42 72 -76 90 -82 28 -9 125 -104 365 -356 47 -49 111 -111 143 -137 34
-29 67 -68 82 -97 18 -35 40 -59 78 -84 80 -52 545 -522 571 -576 4 -10 16
-21 25 -24 34 -12 69 -46 449 -435 73 -75 140 -144 150 -153 390 -384 611
-608 616 -625 4 -13 14 -23 23 -23 12 0 224 -197 277 -258 6 -7 31 -32 55 -55
168 -160 321 -320 321 -336 0 -6 12 -18 28 -28 43 -28 192 -169 280 -266 4 -4
49 -48 100 -97 l92 -90 0 -63 0 -64 -157 -151 c-87 -83 -178 -171 -203 -195
-25 -24 -61 -55 -80 -69 -19 -14 -47 -37 -61 -52 -15 -15 -43 -39 -62 -54 -20
-15 -67 -53 -106 -85 -38 -31 -74 -57 -78 -57 -4 -1 -24 -14 -43 -30 -19 -17
-40 -30 -47 -30 -7 0 -13 -4 -13 -9 0 -6 -26 -27 -57 -48 -32 -20 -101 -70
-154 -109 -52 -40 -127 -91 -165 -114 -38 -23 -80 -52 -94 -65 -14 -13 -52
-38 -85 -55 -33 -18 -71 -41 -85 -52 -85 -65 -158 -112 -222 -142 -40 -19 -91
-47 -113 -62 -22 -15 -60 -37 -85 -48 -25 -12 -56 -28 -70 -36 -14 -8 -32 -15
-40 -17 -9 -1 -47 -19 -85 -40 -72 -39 -121 -63 -165 -81 -14 -6 -70 -32 -125
-57 -125 -59 -255 -116 -255 -110 0 8 -127 -34 -190 -62 -36 -17 -85 -39 -110
-51 -25 -11 -76 -30 -115 -42 -38 -12 -107 -37 -152 -56 -45 -19 -97 -37 -115
-40 -18 -4 -78 -19 -133 -35 -55 -15 -145 -39 -200 -53 -55 -14 -143 -37 -195
-51 -52 -14 -138 -35 -190 -46 -52 -11 -124 -26 -160 -34 -82 -19 -179 -33
-300 -45 -52 -5 -158 -20 -234 -34 -77 -14 -183 -28 -235 -31 -53 -4 -127 -10
-166 -15 -112 -15 -320 -25 -455 -23 -645 8 -973 22 -1055 43 -22 5 -69 12
-105 16 -36 3 -114 15 -175 25 -60 11 -146 24 -190 29 -122 13 -307 50 -640
130 -44 11 -105 24 -135 31 -30 6 -91 27 -135 45 -44 19 -90 34 -102 34 -31 0
-302 79 -345 101 -21 11 -61 25 -90 33 -106 28 -165 49 -248 91 -47 23 -110
52 -141 64 -31 12 -65 30 -76 40 -10 10 -44 24 -73 31 -30 7 -62 17 -70 21 -8
4 -112 56 -230 115 -311 154 -408 206 -433 230 -12 11 -43 28 -69 38 -26 9
-62 28 -80 42 -18 13 -46 32 -62 41 -16 10 -76 48 -133 86 -57 37 -106 67
-108 67 -7 0 -119 72 -132 86 -7 7 -44 33 -82 58 -38 26 -83 62 -100 82 -17
19 -48 42 -69 51 -54 22 -188 118 -255 182 -32 31 -74 65 -93 77 -19 11 -65
50 -102 85 -38 35 -94 88 -125 117 -30 28 -59 61 -62 72 -3 11 -11 20 -17 20
-20 0 -209 153 -235 190 -11 15 -13 35 -8 72 8 53 41 97 169 224 28 28 107
111 176 184 69 74 142 150 162 170 20 19 53 55 73 80 20 24 58 60 84 80 26 19
96 85 155 145 175 178 372 376 435 435 31 30 79 80 105 110 27 30 59 62 72 71
34 22 140 126 284 279 69 73 152 159 185 191 398 393 554 550 577 580 14 19
59 66 99 105 40 38 160 157 266 264 106 107 225 227 264 265 40 39 105 104
145 145 105 107 519 521 584 585 82 78 250 248 290 292 19 21 131 133 249 248
118 116 311 308 430 428 119 120 293 293 386 385 156 153 397 396 429 432 18
21 85 78 105 90 9 5 41 10 71 10 52 0 57 -2 90 -42z m756 -9865 c-10 -11 -37
-12 -30 -2 3 5 12 9 21 9 9 0 13 -3 9 -7z"/>
<path d="M6593 19315 c0 -7 6 -11 14 -8 7 3 13 6 13 8 0 2 -6 5 -13 8 -8 3
-14 -1 -14 -8z"/>
<path d="M5935 19060 c3 -5 8 -10 11 -10 2 0 4 5 4 10 0 6 -5 10 -11 10 -5 0
-7 -4 -4 -10z"/>
<path d="M5970 19060 c-9 -6 -10 -10 -3 -10 6 0 15 5 18 10 8 12 4 12 -15 0z"/>
<path d="M5655 18921 c-3 -5 -2 -12 3 -15 5 -3 9 1 9 9 0 17 -3 19 -12 6z"/>
<path d="M5435 18809 c-4 -6 -5 -12 -2 -15 2 -3 7 2 10 11 7 17 1 20 -8 4z"/>
<path d="M4846 18482 c-3 -5 1 -9 9 -9 8 0 12 4 9 9 -3 4 -7 8 -9 8 -2 0 -6
-4 -9 -8z"/>
<path d="M4735 18409 c-4 -6 -5 -12 -2 -15 2 -3 7 2 10 11 7 17 1 20 -8 4z"/>
<path d="M4560 18326 c0 -2 8 -10 18 -17 15 -13 16 -12 3 4 -13 16 -21 21 -21
13z"/>
<path d="M4536 18273 c-6 -14 -5 -15 5 -6 7 7 10 15 7 18 -3 3 -9 -2 -12 -12z"/>
<path d="M4249 18083 c-13 -16 -12 -17 4 -4 16 13 21 21 13 21 -2 0 -10 -8
-17 -17z"/>
<path d="M4110 18001 c0 -6 4 -13 10 -16 6 -3 7 1 4 9 -7 18 -14 21 -14 7z"/>
<path d="M3670 17640 c-9 -6 -10 -10 -3 -10 6 0 15 5 18 10 8 12 4 12 -15 0z"/>
<path d="M3533 17525 c0 -8 4 -12 9 -9 5 3 6 10 3 15 -9 13 -12 11 -12 -6z"/>
<path d="M3266 17305 c-11 -8 -15 -15 -9 -15 6 0 16 7 23 15 16 19 11 19 -14
0z"/>
<path d="M3216 17258 c3 -4 11 -5 19 -1 21 7 19 12 -4 10 -11 0 -18 -5 -15 -9z"/>
<path d="M2920 16956 c7 -7 13 -7 20 0 6 6 3 10 -10 10 -13 0 -16 -4 -10 -10z"/>
<path d="M2851 16887 c-13 -21 -12 -21 5 -5 10 10 16 20 13 22 -3 3 -11 -5
-18 -17z"/>
<path d="M2510 16499 c0 -5 5 -7 10 -4 6 3 10 8 10 11 0 2 -4 4 -10 4 -5 0
-10 -5 -10 -11z"/>
<path d="M2415 16420 c-3 -5 -1 -10 4 -10 6 0 11 5 11 10 0 6 -2 10 -4 10 -3
0 -8 -4 -11 -10z"/>
<path d="M2359 16348 c-5 -18 -6 -38 -1 -34 7 8 12 36 6 36 -2 0 -4 -1 -5 -2z"/>
<path d="M2146 16058 c3 -5 10 -6 15 -3 13 9 11 12 -6 12 -8 0 -12 -4 -9 -9z"/>
<path d="M1795 15570 c-4 -6 -11 -7 -17 -4 -7 4 -8 2 -4 -5 6 -9 11 -9 22 0
14 11 18 19 10 19 -3 0 -8 -5 -11 -10z"/>
<path d="M1716 15477 c3 -10 9 -15 12 -12 3 3 0 11 -7 18 -10 9 -11 8 -5 -6z"/>
<path d="M1676 15442 c-3 -5 1 -9 9 -9 8 0 12 4 9 9 -3 4 -7 8 -9 8 -2 0 -6
-4 -9 -8z"/>
<path d="M1655 15380 c-3 -5 -1 -10 4 -10 6 0 11 5 11 10 0 6 -2 10 -4 10 -3
0 -8 -4 -11 -10z"/>
<path d="M1496 15127 c3 -10 9 -15 12 -12 3 3 0 11 -7 18 -10 9 -11 8 -5 -6z"/>
<path d="M1393 14945 c0 -8 4 -12 9 -9 5 3 6 10 3 15 -9 13 -12 11 -12 -6z"/>
<path d="M1016 14253 c-6 -14 -5 -15 5 -6 7 7 10 15 7 18 -3 3 -9 -2 -12 -12z"/>
<path d="M826 13842 c-3 -5 1 -9 9 -9 8 0 12 4 9 9 -3 4 -7 8 -9 8 -2 0 -6 -4
-9 -8z"/>
<path d="M816 13778 c3 -5 10 -6 15 -3 13 9 11 12 -6 12 -8 0 -12 -4 -9 -9z"/>
<path d="M636 13362 c-3 -5 1 -9 9 -9 8 0 12 4 9 9 -3 4 -7 8 -9 8 -2 0 -6 -4
-9 -8z"/>
<path d="M514 12930 c0 -13 4 -16 10 -10 7 7 7 13 0 20 -6 6 -10 3 -10 -10z"/>
<path d="M416 12653 c-6 -14 -5 -15 5 -6 7 7 10 15 7 18 -3 3 -9 -2 -12 -12z"/>
<path d="M316 12273 c-6 -14 -5 -15 5 -6 7 7 10 15 7 18 -3 3 -9 -2 -12 -12z"/>
<path d="M195 11610 c-3 -6 1 -7 9 -4 18 7 21 14 7 14 -6 0 -13 -4 -16 -10z"/>
<path d="M150 11506 c0 -2 7 -7 16 -10 8 -3 12 -2 9 4 -6 10 -25 14 -25 6z"/>
<path d="M155 11340 c3 -5 8 -10 11 -10 2 0 4 5 4 10 0 6 -5 10 -11 10 -5 0
-7 -4 -4 -10z"/>
<path d="M147 11319 c7 -7 15 -10 18 -7 3 3 -2 9 -12 12 -14 6 -15 5 -6 -5z"/>
<path d="M90 10979 c0 -5 5 -7 10 -4 6 3 10 8 10 11 0 2 -4 4 -10 4 -5 0 -10
-5 -10 -11z"/>
<path d="M79 10733 c-13 -16 -12 -17 4 -4 16 13 21 21 13 21 -2 0 -10 -8 -17
-17z"/>
<path d="M73 10425 c0 -8 4 -15 9 -15 10 0 10 17 0 24 -5 3 -9 -1 -9 -9z"/>
<path d="M54 10222 c3 -5 1 -12 -6 -14 -8 -3 -9 -6 -1 -11 6 -4 13 0 17 8 3 8
0 17 -6 21 -6 4 -8 3 -4 -4z"/>
<path d="M57 10159 c7 -7 15 -10 18 -7 3 3 -2 9 -12 12 -14 6 -15 5 -6 -5z"/>
<path d="M59 10033 c-13 -16 -12 -17 4 -4 9 7 17 15 17 17 0 8 -8 3 -21 -13z"/>
<path d="M73 9945 c0 -8 4 -12 9 -9 5 3 6 10 3 15 -9 13 -12 11 -12 -6z"/>
<path d="M55 9691 c-3 -5 -2 -12 3 -15 5 -3 9 1 9 9 0 17 -3 19 -12 6z"/>
<path d="M116 9007 c3 -10 9 -15 12 -12 3 3 0 11 -7 18 -10 9 -11 8 -5 -6z"/>
<path d="M116 8842 c-3 -5 1 -9 9 -9 8 0 12 4 9 9 -3 4 -7 8 -9 8 -2 0 -6 -4
-9 -8z"/>
<path d="M230 8159 c0 -5 5 -7 10 -4 6 3 10 8 10 11 0 2 -4 4 -10 4 -5 0 -10
-5 -10 -11z"/>
<path d="M307 7799 c7 -7 15 -10 18 -7 3 3 -2 9 -12 12 -14 6 -15 5 -6 -5z"/>
<path d="M396 7431 c-3 -5 1 -11 9 -14 9 -4 12 -1 8 9 -6 16 -10 17 -17 5z"/>
<path d="M453 7232 c-1 -22 0 -24 9 -8 6 10 6 22 2 26 -5 5 -10 -3 -11 -18z"/>
<path d="M495 7080 c3 -5 8 -10 11 -10 2 0 4 5 4 10 0 6 -5 10 -11 10 -5 0 -7
-4 -4 -10z"/>
<path d="M19325 6680 c-3 -6 1 -7 9 -4 18 7 21 14 7 14 -6 0 -13 -4 -16 -10z"/>
<path d="M641 6636 c-9 -11 -9 -16 1 -22 7 -4 10 -4 6 1 -4 4 -3 14 3 22 6 7
9 13 6 13 -2 0 -10 -6 -16 -14z"/>
<path d="M19306 6622 c-3 -5 1 -9 9 -9 8 0 12 4 9 9 -3 4 -7 8 -9 8 -2 0 -6
-4 -9 -8z"/>
<path d="M795 6251 c-3 -5 -2 -12 3 -15 5 -3 9 1 9 9 0 17 -3 19 -12 6z"/>
<path d="M866 6058 c3 -5 10 -6 15 -3 13 9 11 12 -6 12 -8 0 -12 -4 -9 -9z"/>
<path d="M18950 5790 c0 -5 5 -10 11 -10 5 0 7 5 4 10 -3 6 -8 10 -11 10 -2 0
-4 -4 -4 -10z"/>
<path d="M18820 5500 c-9 -6 -10 -10 -3 -10 6 0 15 5 18 10 8 12 4 12 -15 0z"/>
<path d="M1296 5202 c-3 -5 1 -9 9 -9 8 0 12 4 9 9 -3 4 -7 8 -9 8 -2 0 -6 -4
-9 -8z"/>
<path d="M18495 4911 c-3 -5 -2 -12 3 -15 5 -3 9 1 9 9 0 17 -3 19 -12 6z"/>
<path d="M1530 4781 c0 -6 4 -13 10 -16 6 -3 7 1 4 9 -7 18 -14 21 -14 7z"/>
<path d="M1630 4622 c0 -5 7 -9 15 -9 8 0 12 4 9 9 -3 4 -9 8 -15 8 -5 0 -9
-4 -9 -8z"/>
<path d="M1690 4536 c0 -2 8 -10 18 -17 15 -13 16 -12 3 4 -13 16 -21 21 -21
13z"/>
<path d="M1951 4153 c7 -12 15 -20 18 -17 3 2 -3 12 -13 22 -17 16 -18 16 -5
-5z"/>
<path d="M17890 4019 c0 -5 5 -7 10 -4 6 3 10 8 10 11 0 2 -4 4 -10 4 -5 0
-10 -5 -10 -11z"/>
<path d="M17716 3758 c3 -5 10 -6 15 -3 13 9 11 12 -6 12 -8 0 -12 -4 -9 -9z"/>
<path d="M17546 3578 c3 -5 10 -6 15 -3 13 9 11 12 -6 12 -8 0 -12 -4 -9 -9z"/>
<path d="M17515 3560 c-3 -5 -1 -10 4 -10 6 0 11 5 11 10 0 6 -2 10 -4 10 -3
0 -8 -4 -11 -10z"/>
<path d="M2470 3516 c0 -2 8 -10 18 -17 15 -13 16 -12 3 4 -13 16 -21 21 -21
13z"/>
<path d="M17455 3460 c3 -5 8 -10 11 -10 2 0 4 5 4 10 0 6 -5 10 -11 10 -5 0
-7 -4 -4 -10z"/>
<path d="M17316 3342 c-2 -4 -1 -14 4 -22 7 -11 9 -9 7 8 -1 24 -3 26 -11 14z"/>
<path d="M2706 3255 c4 -8 11 -15 16 -15 6 0 5 6 -2 15 -7 8 -14 15 -16 15 -2
0 -1 -7 2 -15z"/>
<path d="M17175 3169 c-4 -6 -5 -12 -2 -15 2 -3 7 2 10 11 7 17 1 20 -8 4z"/>
<path d="M17100 3106 c0 -2 7 -7 16 -10 8 -3 12 -2 9 4 -6 10 -25 14 -25 6z"/>
<path d="M2914 3022 c4 -3 14 -7 22 -8 9 -1 13 0 10 4 -4 3 -14 7 -22 8 -9 1
-13 0 -10 -4z"/>
<path d="M3080 2871 c0 -6 4 -13 10 -16 6 -3 7 1 4 9 -7 18 -14 21 -14 7z"/>
<path d="M3246 2702 c-3 -5 1 -9 9 -9 8 0 12 4 9 9 -3 4 -7 8 -9 8 -2 0 -6 -4
-9 -8z"/>
<path d="M16473 2494 c0 -9 4 -11 12 -4 7 5 14 9 16 7 2 -1 3 0 1 2 -7 11 -29
7 -29 -5z"/>
<path d="M3507 2459 c7 -7 15 -10 18 -7 3 3 -2 9 -12 12 -14 6 -15 5 -6 -5z"/>
<path d="M16266 2342 c-3 -5 1 -9 9 -9 8 0 12 4 9 9 -3 4 -7 8 -9 8 -2 0 -6
-4 -9 -8z"/>
<path d="M16226 2302 c-3 -5 1 -9 9 -9 8 0 12 4 9 9 -3 4 -7 8 -9 8 -2 0 -6
-4 -9 -8z"/>
<path d="M3780 2245 c0 -2 6 -8 13 -14 10 -8 14 -7 14 2 0 8 -6 14 -14 14 -7
0 -13 -1 -13 -2z"/>
<path d="M3895 2160 c3 -5 8 -10 11 -10 2 0 4 5 4 10 0 6 -5 10 -11 10 -5 0
-7 -4 -4 -10z"/>
<path d="M3950 2121 c0 -10 29 -36 34 -30 1 2 -6 12 -16 22 -10 9 -18 13 -18
8z"/>
<path d="M15915 2061 c-3 -5 -2 -12 3 -15 5 -3 9 1 9 9 0 17 -3 19 -12 6z"/>
<path d="M15805 1960 c-3 -6 1 -7 9 -4 18 7 21 14 7 14 -6 0 -13 -4 -16 -10z"/>
<path d="M15736 1915 c-9 -26 -7 -32 5 -12 6 10 9 21 6 23 -2 3 -7 -2 -11 -11z"/>
<path d="M4256 1878 c3 -5 10 -6 15 -3 13 9 11 12 -6 12 -8 0 -12 -4 -9 -9z"/>
<path d="M15673 1865 c0 -8 4 -12 9 -9 5 3 6 10 3 15 -9 13 -12 11 -12 -6z"/>
<path d="M15633 1835 c0 -8 4 -12 9 -9 5 3 6 10 3 15 -9 13 -12 11 -12 -6z"/>
<path d="M4373 1805 c0 -8 4 -15 9 -15 4 0 8 4 8 9 0 6 -4 12 -8 15 -5 3 -9
-1 -9 -9z"/>
<path d="M15410 1699 c0 -5 5 -7 10 -4 6 3 10 8 10 11 0 2 -4 4 -10 4 -5 0
-10 -5 -10 -11z"/>
<path d="M15390 1680 c0 -5 5 -10 11 -10 5 0 7 5 4 10 -3 6 -8 10 -11 10 -2 0
-4 -4 -4 -10z"/>
<path d="M4690 1601 c0 -6 4 -12 8 -15 5 -3 9 1 9 9 0 8 -4 15 -9 15 -4 0 -8
-4 -8 -9z"/>
<path d="M15240 1575 c-19 -22 -8 -25 13 -3 9 10 13 18 8 18 -5 0 -14 -7 -21
-15z"/>
<path d="M15070 1496 c0 -2 8 -10 18 -17 15 -13 16 -12 3 4 -13 16 -21 21 -21
13z"/>
<path d="M5042 1384 c10 -10 20 -16 22 -13 3 3 -5 11 -17 18 -21 13 -21 12 -5
-5z"/>
<path d="M5236 1282 c-3 -5 1 -9 9 -9 8 0 12 4 9 9 -3 4 -7 8 -9 8 -2 0 -6 -4
-9 -8z"/>
<path d="M14595 1201 c-3 -5 -2 -12 3 -15 5 -3 9 1 9 9 0 17 -3 19 -12 6z"/>
<path d="M5570 1111 c0 -6 4 -13 10 -16 6 -3 7 1 4 9 -7 18 -14 21 -14 7z"/>
<path d="M5650 1060 c0 -5 5 -10 11 -10 5 0 7 5 4 10 -3 6 -8 10 -11 10 -2 0
-4 -4 -4 -10z"/>
<path d="M14250 1039 c0 -5 5 -7 10 -4 6 3 10 8 10 11 0 2 -4 4 -10 4 -5 0
-10 -5 -10 -11z"/>
<path d="M5956 922 c-3 -5 1 -9 9 -9 8 0 12 4 9 9 -3 4 -7 8 -9 8 -2 0 -6 -4
-9 -8z"/>
<path d="M13790 838 c0 -4 4 -8 9 -8 6 0 12 4 15 8 3 5 -1 9 -9 9 -8 0 -15 -4
-15 -9z"/>
<path d="M6231 813 c7 -12 15 -20 18 -17 3 2 -3 12 -13 22 -17 16 -18 16 -5
-5z"/>
<path d="M13706 798 c3 -5 10 -6 15 -3 13 9 11 12 -6 12 -8 0 -12 -4 -9 -9z"/>
<path d="M6295 780 c3 -5 8 -10 11 -10 2 0 4 5 4 10 0 6 -5 10 -11 10 -5 0 -7
-4 -4 -10z"/>
<path d="M13635 781 c-3 -5 -2 -12 3 -15 5 -3 9 1 9 9 0 17 -3 19 -12 6z"/>
<path d="M6416 718 c3 -5 10 -6 15 -3 13 9 11 12 -6 12 -8 0 -12 -4 -9 -9z"/>
<path d="M6586 661 c8 -8 43 -8 38 0 -2 4 -13 7 -24 6 -10 -1 -17 -3 -14 -6z"/>
<path d="M13315 661 c-3 -5 -2 -12 3 -15 5 -3 9 1 9 9 0 17 -3 19 -12 6z"/>
<path d="M13210 625 c0 -5 5 -17 10 -25 5 -8 10 -10 10 -5 0 6 -5 17 -10 25
-5 8 -10 11 -10 5z"/>
<path d="M6835 581 c-3 -5 -2 -12 3 -15 5 -3 9 1 9 9 0 17 -3 19 -12 6z"/>
<path d="M13095 580 c-3 -6 1 -7 9 -4 18 7 21 14 7 14 -6 0 -13 -4 -16 -10z"/>
<path d="M6916 562 c-3 -5 1 -9 9 -9 8 0 12 4 9 9 -3 4 -7 8 -9 8 -2 0 -6 -4
-9 -8z"/>
<path d="M7056 522 c-3 -5 1 -9 9 -9 8 0 12 4 9 9 -3 4 -7 8 -9 8 -2 0 -6 -4
-9 -8z"/>
<path d="M7157 493 c-10 -9 -9 -23 1 -23 5 0 9 7 9 15 0 17 -1 18 -10 8z"/>
<path d="M12785 480 c-2 -3 9 -6 25 -5 15 0 26 3 24 7 -5 8 -44 6 -49 -2z"/>
<path d="M12686 445 c-11 -8 -15 -15 -9 -15 6 0 16 7 23 15 16 19 11 19 -14 0z"/>
<path d="M7316 438 c3 -5 10 -6 15 -3 13 9 11 12 -6 12 -8 0 -12 -4 -9 -9z"/>
<path d="M12450 391 c0 -6 4 -13 10 -16 6 -3 7 1 4 9 -7 18 -14 21 -14 7z"/>
<path d="M7570 380 c0 -5 5 -10 11 -10 5 0 7 5 4 10 -3 6 -8 10 -11 10 -2 0
-4 -4 -4 -10z"/>
<path d="M12373 367 c0 -8 6 -14 14 -14 9 0 10 4 2 14 -6 7 -12 13 -14 13 -1
0 -2 -6 -2 -13z"/>
<path d="M7595 360 c-3 -5 -1 -10 4 -10 6 0 11 5 11 10 0 6 -2 10 -4 10 -3 0
-8 -4 -11 -10z"/>
<path d="M7710 336 c7 -7 13 -7 20 0 6 6 3 10 -10 10 -13 0 -16 -4 -10 -10z"/>
<path d="M7836 322 c-3 -5 1 -9 9 -9 8 0 12 4 9 9 -3 4 -7 8 -9 8 -2 0 -6 -4
-9 -8z"/>
<path d="M11795 250 c-4 -6 -11 -7 -17 -4 -7 4 -8 2 -4 -5 6 -9 11 -9 22 0 14
11 18 19 10 19 -3 0 -8 -5 -11 -10z"/>
<path d="M11735 240 c-3 -5 -1 -10 4 -10 6 0 11 5 11 10 0 6 -2 10 -4 10 -3 0
-8 -4 -11 -10z"/>
<path d="M11635 220 c-3 -5 -1 -10 4 -10 6 0 11 5 11 10 0 6 -2 10 -4 10 -3 0
-8 -4 -11 -10z"/>
<path d="M8520 180 c-9 -6 -10 -10 -3 -10 6 0 15 5 18 10 8 12 4 12 -15 0z"/>
<path d="M8740 166 c0 -2 8 -10 18 -17 15 -13 16 -12 3 4 -13 16 -21 21 -21
13z"/>
<path d="M8850 140 c0 -5 5 -10 11 -10 5 0 7 5 4 10 -3 6 -8 10 -11 10 -2 0
-4 -4 -4 -10z"/>
<path d="M9193 105 c0 -8 4 -12 9 -9 5 3 6 10 3 15 -9 13 -12 11 -12 -6z"/>
<path d="M10755 100 c-3 -5 -1 -10 4 -10 6 0 11 5 11 10 0 6 -2 10 -4 10 -3 0
-8 -4 -11 -10z"/>
<path d="M9850 86 c0 -2 7 -7 16 -10 8 -3 12 -2 9 4 -6 10 -25 14 -25 6z"/>
<path d="M9933 75 c0 -8 4 -12 9 -9 5 3 6 10 3 15 -9 13 -12 11 -12 -6z"/>
<path d="M9966 82 c-3 -5 1 -9 9 -9 8 0 15 4 15 9 0 10 -17 10 -24 0z"/>
<path d="M10010 82 c0 -5 7 -9 15 -9 8 0 12 4 9 9 -7 10 -24 10 -24 0z"/>
<path d="M10050 78 c0 -6 3 -8 7 -5 3 4 13 1 22 -6 14 -11 14 -10 2 6 -15 20
-31 22 -31 5z"/>
<path d="M10236 82 c-3 -5 1 -9 9 -9 8 0 12 4 9 9 -3 4 -7 8 -9 8 -2 0 -6 -4
-9 -8z"/>
<path d="M9747 59 c7 -7 15 -10 18 -7 3 3 -2 9 -12 12 -14 6 -15 5 -6 -5z"/>
<path d="M9786 58 c3 -5 10 -6 15 -3 13 9 11 12 -6 12 -8 0 -12 -4 -9 -9z"/>
</g>
</svg>
